<svg width="83" height="92" viewBox="0 0 83 92" fill="none" xmlns="http://www.w3.org/2000/svg">
<path d="M41.682 91C64.7992 86 77.4787 73 81.682 24.913C73.0894 24.913 69.4598 18.2464 68.719 14.913L41.682 1" stroke="#D9D9D9" stroke-width="2"/>
<path d="M41.682 91C64.7992 86 77.4787 73 81.682 24.913C73.0894 24.913 69.4598 18.2464 68.719 14.913L41.682 1" stroke="#D9D9D9" stroke-width="2"/>
<path d="M42 91C18.8829 86 6.20332 73 2 24.913C10.5926 24.913 14.2222 18.2464 14.963 14.913L42 1" stroke="#D9D9D9" stroke-width="2"/>
<path d="M42 91C18.8829 86 6.20332 73 2 24.913C10.5926 24.913 14.2222 18.2464 14.963 14.913L42 1" stroke="#D9D9D9" stroke-width="2"/>
<path d="M41.8603 86C62.1685 81.5556 73.3074 70 77 27.256C69.4515 27.256 66.2629 21.3301 65.6121 18.3672L41.8603 6" stroke="#D9D9D9" stroke-width="2"/>
<path d="M41.8603 86C62.1685 81.5556 73.3074 70 77 27.256C69.4515 27.256 66.2629 21.3301 65.6121 18.3672L41.8603 6" stroke="#D9D9D9" stroke-width="2"/>
<path d="M42.1397 86C21.8315 81.5556 10.6926 70 7 27.256C14.5485 27.256 17.7371 21.3301 18.3879 18.3672L42.1397 6" stroke="#D9D9D9" stroke-width="2"/>
<path d="M42.1397 86C21.8315 81.5556 10.6926 70 7 27.256C14.5485 27.256 17.7371 21.3301 18.3879 18.3672L42.1397 6" stroke="#D9D9D9" stroke-width="2"/>
</svg>
