<svg width="89" height="90" viewBox="0 0 89 90" fill="none" xmlns="http://www.w3.org/2000/svg">
<path d="M7.41996 42.3482C4.87786 39.5387 2.99496 36.0715 1.94617 32.2505C0.897355 28.4294 0.7171 24.3791 1.42232 20.4609C2.12752 16.5426 3.69499 12.8847 5.97859 9.80947C8.26189 6.73462 11.1883 4.33991 14.4921 2.82749C17.795 1.31546 21.3788 0.729096 24.9284 1.11548C28.4783 1.50189 31.8952 2.85055 34.8755 5.0514C37.8566 7.2528 40.3102 10.2402 42.0107 13.7562C43.4342 16.6995 43.5 16.5 44 20.5" stroke="#D9D9D9" stroke-width="2"/>
<path d="M44.5 20.5C45.0438 16.7156 47.2844 13.9632 49.2891 10.8805C51.2936 7.79813 53.911 5.3034 56.9202 3.59049C59.9285 1.87808 63.2467 0.993097 66.6053 1.00004C69.9639 1.00698 73.2794 1.90568 76.2822 3.63062C79.2859 5.35607 81.8953 7.86175 83.8898 10.9525C85.8845 14.0436 87.2047 17.6284 87.7361 21.4151C88.2675 25.2019 87.9938 29.0756 86.9389 32.7179C85.8841 36.3601 84.0801 39.6608 81.6824 42.3542" stroke="#D9D9D9" stroke-width="2"/>
<path d="M5.14877 40L44.8678 88L83.8513 40" stroke="#D9D9D9" stroke-width="2"/>
</svg>
